<svg width="120" height="75" fill="none" xmlns="http://www.w3.org/2000/svg"><path d="M7.65 62.472l.027.02h-.028v-.02zm45.217-44.684V51.11l-6-.016-.063-.169v.17l-6.226-4.185v18.58l-14.266 9.298-14.051-9.402v-37.46L6.063 23.78v33.237l1.657 1.108-.068 4.177L0 57.182V17.133h6.063L12.26 21.3V9.394L26.317 0l14.324 9.394-.035 18.331h-.065l.037.038-2.946 2.639-3.219-2.911V9.551l-8.091-5.335-7.98 5.335v55.682l7.97 5.334 8.098-5.254V42.765l-11.088-7.452v-6.58l23.482 15.78v-26.59l-1.773-1.187v-4.192l7.836 5.244zm3.23 18.433h9.129c1.521 0 2.627.344 3.315 1.031.688.687 1.032 1.79 1.032 3.31v2.17c0 1.518-.344 2.622-1.032 3.309-.688.687-1.794 1.03-3.315 1.03h-5.217v4.341h-3.912v-15.19zm9.563 4.34c0-.868-.435-1.302-1.304-1.302h-4.347v4.774h4.347c.87 0 1.304-.434 1.304-1.302v-2.17zm5.869-4.34h9.129c1.521 0 2.626.344 3.314 1.031.689.687 1.033 1.79 1.033 3.31v1.953c0 1.2-.2 2.134-.598 2.799-.398.665-1.032 1.107-1.902 1.324l2.718 4.774h-4.239l-2.5-4.556h-3.042v4.556h-3.913v-15.19zm9.564 4.34c0-.868-.435-1.302-1.305-1.302h-4.347v4.557h4.347c.87 0 1.305-.434 1.305-1.302v-1.952zm19.778 6.727c0 1.52-.344 2.623-1.032 3.31-.688.687-1.793 1.03-3.315 1.03h-5.433c-1.522 0-2.627-.343-3.315-1.03-.689-.687-1.033-1.79-1.033-3.31v-6.943c0-1.52.344-2.623 1.033-3.31.688-.687 1.793-1.03 3.315-1.03h5.433c1.522 0 2.627.343 3.315 1.03.688.687 1.032 1.79 1.032 3.31v6.944zm-3.912-6.943c0-.868-.435-1.303-1.304-1.303h-3.696c-.87 0-1.304.434-1.304 1.303v6.944c0 .868.435 1.302 1.304 1.302h3.696c.87 0 1.304-.434 1.304-1.303v-6.943zm19.127 2.604l-3.043 5.425h-3.042l-3.043-5.425v8.463h-3.913v-15.19h4.131l4.347 8.029 4.347-8.03H120v15.191h-3.912V42.95h-.002z" fill="#1F4492"/></svg>