<svg width="24" height="24" fill="none" xmlns="http://www.w3.org/2000/svg"><path d="M1.277 8.858c1.329 5.28 8.586 12.542 13.865 13.865.713.18 1.445.273 2.18.274a8.54 8.54 0 004.006-1 3.109 3.109 0 00.764-4.951l-2.086-2.086a3.112 3.112 0 00-3.444-.651 4.86 4.86 0 00-1.471.987c-.178.177-.506.205-.977.077a9.98 9.98 0 01-5.488-5.487c-.126-.471-.1-.8.078-.977.417-.426.752-.926.988-1.473a3.112 3.112 0 00-.651-3.442L6.955 1.909A3.065 3.065 0 004.3 1.035 3.1 3.1 0 002 2.672a8.58 8.58 0 00-.723 6.186zM3.773 3.6a1.115 1.115 0 011.413-.516c.133.055.254.137.355.239l2.085 2.085a1.1 1.1 0 01.239 1.213 2.9 2.9 0 01-.575.879 2.817 2.817 0 00-.59 2.9c.722 2.7 4.205 6.179 6.9 6.9a2.822 2.822 0 002.907-.6c.254-.243.55-.438.874-.576a1.1 1.1 0 011.214.239l2.085 2.085a1.089 1.089 0 01.31.942 1.113 1.113 0 01-.591.826 6.517 6.517 0 01-4.766.556C11.089 19.641 4.36 12.912 3.216 8.37a6.53 6.53 0 01.557-4.77z" fill="#153067"/></svg>