<svg width="24" height="24" fill="none" xmlns="http://www.w3.org/2000/svg"><path fill-rule="evenodd" clip-rule="evenodd" d="M21.474 4.418a.746.746 0 00-.764-.11L1.725 11.802a.75.75 0 00.169 1.44l6.356.908V19a.75.75 0 001.283.528l2.809-2.833 5.734 3.924a.75.75 0 001.164-.496l2.498-14.988a.746.746 0 00-.524-.854m-5.716 3.697l-10.589 4.18 3.901.557 6.688-4.737zm-7.215 5.3a.749.749 0 01.182-.304m-.182.304a.747.747 0 00-.033.232m1.5 1.412v2.256l1.333-1.344-1.333-.912zm2.933.19a.721.721 0 00-.023-.016l-2.347-1.607 9.651-6.836-2.01 12.064-5.27-3.606zM9.436 12.89a.742.742 0 00-.345-.135" fill="#535761"/></svg>