<svg width="19" height="10" viewBox="0 0 19 10" fill="none" xmlns="http://www.w3.org/2000/svg">
<path d="M9.87786 9.68798C9.99426 9.64011 10.1001 9.56977 10.1893 9.48098L17.856 1.81432C18.0306 1.63357 18.1271 1.39149 18.125 1.14022C18.1228 0.888951 18.022 0.648588 17.8443 0.470906C17.6666 0.293223 17.4263 0.192436 17.175 0.190253C16.9237 0.18807 16.6816 0.284663 16.5009 0.459232L10.4701 6.49002L9.6532 7.30694C9.57509 7.38504 9.44846 7.38504 9.37035 7.30694L8.55344 6.49002L2.52265 0.459232C2.43425 0.367702 2.3285 0.294694 2.21158 0.244469C2.09466 0.194243 1.96891 0.167807 1.84166 0.1667C1.71441 0.165595 1.58822 0.189843 1.47044 0.238029C1.35267 0.286215 1.24567 0.357374 1.15569 0.447354C1.06571 0.537334 0.994549 0.644335 0.946363 0.76211C0.898178 0.879886 0.87393 1.00608 0.875036 1.13333C0.876142 1.26057 0.902578 1.38632 0.952804 1.50325C1.00303 1.62017 1.07604 1.72591 1.16757 1.81432L8.83423 9.48098C8.92345 9.56977 9.02929 9.64011 9.14569 9.68798C9.2616 9.73669 9.38605 9.76178 9.51178 9.76178C9.6375 9.76178 9.76196 9.73669 9.87786 9.68798Z" fill="#3A3F4A"/>
</svg>
